Coordinates
version=1
nRows=14
nColumns=40
inDegrees=yes

Units are S.I. units (second, meters, Newtons, ...)
If the header above contains a line with 'inDegrees', this indicates whether rotational values are in degrees (yes) or radians (no).

endheader
time	pelvis_tilt	pelvis_list	pelvis_rotation	pelvis_tx	pelvis_ty	pelvis_tz	hip_flexion_r	hip_adduction_r	hip_rotation_r	knee_angle_r	knee_angle_r_beta	ankle_angle_r	subtalar_angle_r	mtp_angle_r	hip_flexion_l	hip_adduction_l	hip_rotation_l	knee_angle_l	knee_angle_l_beta	ankle_angle_l	subtalar_angle_l	mtp_angle_l	lumbar_extension	lumbar_bending	lumbar_rotation	arm_flex_r	arm_add_r	arm_rot_r	elbow_flex_r	pro_sup_r	wrist_flex_r	wrist_dev_r	arm_flex_l	arm_add_l	arm_rot_l	elbow_flex_l	pro_sup_l	wrist_flex_l	wrist_dev_l
      2.26500000	     -9.00005176	     -1.77795803	     -1.35539829	      0.17720583	      0.44061802	     -1.22796023	    102.77901720	    -49.07213209	     22.47946960	    120.39100982	      2.10121951	     36.66667353	     13.46887896	      0.00000000	    109.32527105	    -48.66846719	     28.15849832	    124.48382376	      2.17265259	     31.92714891	     26.19377154	      0.00000000	    -26.32657265	      2.34672712	     -6.09295341	     44.99992434	    -14.99999999	     44.99992434	     75.00017585	     45.00000026	      0.00000000	      0.00000000	     44.99992434	    -14.99999999	     44.99992434	     75.00017585	     45.00000026	      0.00000000	      0.00000000
      2.27000000	     -9.33739853	     -1.71870639	     -1.38416812	      0.17669944	      0.44379700	     -1.22745334	    102.59367023	    -49.03997805	     21.85626056	    119.98183250	      2.09407802	     36.37285161	     13.27412625	      0.00000000	    108.93099148	    -48.68630669	     27.41856799	    123.95119953	      2.16335654	     31.77339438	     25.89039411	      0.00000000	    -25.86112528	      2.21897967	     -6.03338577	     44.99992434	    -14.99999999	     44.99992434	     75.00017585	     45.00000026	      0.00000000	      0.00000000	     44.99992434	    -14.99999999	     44.99992434	     75.00017585	     45.00000026	      0.00000000	      0.00000000
      2.27500000	     -9.68846342	     -1.82835892	     -1.44088372	      0.17632925	      0.44698658	     -1.22710967	    102.13002985	    -49.00895995	     20.94269706	    119.54704247	      2.08648950	     36.10419835	     13.17150242	      0.00000000	    108.79172316	    -48.68460094	     26.99830492	    123.44814367	      2.15457656	     31.62479334	     25.55771518	      0.00000000	    -25.34758623	      2.31332597	     -5.95567221	     44.99992434	    -14.99999999	     44.99992434	     75.00017585	     45.00000026	      0.00000000	      0.00000000	     44.99992434	    -14.99999999	     44.99992434	     75.00017585	     45.00000026	      0.00000000	      0.00000000
      2.28000000	     -9.99211931	     -1.88714937	     -1.48241094	      0.17596868	      0.45039069	     -1.22667041	    101.65224784	    -48.99571099	     20.09254429	    119.11566391	      2.07896053	     35.90196210	     13.12741381	      0.00000000	    108.48373326	    -48.69230793	     26.45337131	    122.90764839	      2.14514314	     31.50275078	     25.20655398	      0.00000000	    -24.88514398	      2.36423610	     -5.86954902	     44.99992434	    -14.99999999	     44.99992434	     75.00017585	     45.00000026	      0.00000000	      0.00000000	     44.99992434	    -14.99999999	     44.99992434	     75.00017585	     45.00000026	      0.00000000	      0.00000000
      2.28500000	    -10.31317310	     -1.95459501	     -1.52232342	      0.17563065	      0.45372246	     -1.22627865	    101.18327674	    -48.95021160	     19.25147052	    118.65842539	      2.07098021	     35.64246136	     13.00827810	      0.00000000	    108.23609193	    -48.69486746	     25.94204530	    122.38328069	      2.13599120	     31.29433806	     24.89249938	      0.00000000	    -24.39034956	      2.41434876	     -5.77496819	     44.99992434	    -14.99999999	     44.99992434	     75.00017585	     45.00000026	      0.00000000	      0.00000000	     44.99992434	    -14.99999999	     44.99992434	     75.00017585	     45.00000026	      0.00000000	      0.00000000
      2.29000000	    -10.72745171	     -1.84036267	     -1.52772401	      0.17525476	      0.45687717	     -1.22574128	    101.10475701	    -48.90177557	     18.74002175	    118.22713647	      2.06345280	     35.39151044	     12.85633102	      0.00000000	    107.80773997	    -48.67635271	     25.09180335	    121.83392739	      2.12640317	     31.15858026	     24.50201919	      0.00000000	    -23.75082453	      2.21423625	     -5.81889248	     44.99992434	    -14.99999999	     44.99992434	     75.00017585	     45.00000026	      0.00000000	      0.00000000	     44.99992434	    -14.99999999	     44.99992434	     75.00017585	     45.00000026	      0.00000000	      0.00000000
      2.29500000	    -10.95835664	     -1.88528152	     -1.55624700	      0.17494628	      0.46064500	     -1.22529330	    100.49307800	    -48.88084174	     17.88244550	    117.74311986	      2.05500511	     35.22696064	     12.83419440	      0.00000000	    107.34274932	    -48.68762396	     24.47525566	    121.25673007	      2.11632918	     31.03466988	     24.13151649	      0.00000000	    -23.37246271	      2.24904140	     -5.69862246	     44.99992434	    -14.99999999	     44.99992434	     75.00017585	     45.00000026	      0.00000000	      0.00000000	     44.99992434	    -14.99999999	     44.99992434	     75.00017585	     45.00000026	      0.00000000	      0.00000000
      2.30000000	    -11.32772060	     -1.85519560	     -1.57662846	      0.17463631	      0.46405116	     -1.22477618	    100.19760047	    -48.82796396	     17.18701020	    117.27610957	      2.04685425	     34.93939948	     12.66400064	      0.00000000	    106.95559827	    -48.66876310	     23.76687312	    120.68303172	      2.10631625	     30.89694005	     23.76833486	      0.00000000	    -22.78929494	      2.17718540	     -5.63299272	     44.99992434	    -14.99999999	     44.99992434	     75.00017585	     45.00000026	      0.00000000	      0.00000000	     44.99992434	    -14.99999999	     44.99992434	     75.00017585	     45.00000026	      0.00000000	      0.00000000
      2.30500000	    -11.61093630	     -1.93230980	     -1.61938216	      0.17439304	      0.46778096	     -1.22436919	     99.60388418	    -48.77647240	     16.27437308	    116.77537700	      2.03811481	     34.70519556	     12.55525518	      0.00000000	    106.59118705	    -48.67859386	     23.21487136	    120.09955396	      2.09613265	     30.72873822	     23.45526171	      0.00000000	    -22.30386693	      2.25090247	     -5.56573592	     44.99992434	    -14.99999999	     44.99992434	     75.00017585	     45.00000026	      0.00000000	      0.00000000	     44.99992434	    -14.99999999	     44.99992434	     75.00017585	     45.00000026	      0.00000000	      0.00000000
      2.31000000	    -11.92959761	     -2.05807295	     -1.64513031	      0.17417336	      0.47144291	     -1.22404615	     98.97630355	    -48.74623147	     15.26967842	    116.26072640	      2.02913247	     34.45739246	     12.37692661	      0.00000000	    106.32992758	    -48.63889792	     22.75370211	    119.52105978	      2.08603602	     30.57844448	     23.12791983	      0.00000000	    -21.77286338	      2.36093944	     -5.54363126	     44.99992434	    -14.99999999	     44.99992434	     75.00017585	     45.00000026	      0.00000000	      0.00000000	     44.99992434	    -14.99999999	     44.99992434	     75.00017585	     45.00000026	      0.00000000	      0.00000000
      2.31500000	    -12.22975246	     -2.03876106	     -1.66954608	      0.17394824	      0.47519825	     -1.22352744	     98.53152443	    -48.68467853	     14.52995054	    115.75342036	      2.02027831	     34.20908388	     12.27956363	      0.00000000	    105.83318523	    -48.64321152	     22.02794752	    118.91060971	      2.07538166	     30.43067719	     22.77759795	      0.00000000	    -21.24771548	      2.31491973	     -5.47191261	     44.99992434	    -14.99999999	     44.99992434	     75.00017585	     45.00000026	      0.00000000	      0.00000000	     44.99992434	    -14.99999999	     44.99992434	     75.00017585	     45.00000026	      0.00000000	      0.00000000
      2.32000000	    -12.45621032	     -2.07717057	     -1.69876176	      0.17374138	      0.47925628	     -1.22303927	     97.87328598	    -48.62270917	     13.64984430	    115.21202314	      2.01082914	     33.98546148	     12.19974160	      0.00000000	    105.29941514	    -48.65565249	     21.37235872	    118.27779471	      2.06433695	     30.29188255	     22.44134038	      0.00000000	    -20.82055121	      2.33435590	     -5.35645913	     44.99992434	    -14.99999999	     44.99992434	     75.00017585	     45.00000026	      0.00000000	      0.00000000	     44.99992434	    -14.99999999	     44.99992434	     75.00017585	     45.00000026	      0.00000000	      0.00000000
      2.32500000	    -12.72509249	     -2.05255881	     -1.72416248	      0.17356315	      0.48317064	     -1.22249894	     97.38743344	    -48.54811526	     12.91314940	    114.69069750	      2.00173029	     33.70739557	     12.09080494	      0.00000000	    104.74207575	    -48.67327715	     20.62858280	    117.64502686	      2.05329307	     30.14083605	     22.13450520	      0.00000000	    -20.31087391	      2.30150194	     -5.24481681	     44.99992434	    -14.99999999	     44.99992434	     75.00017585	     45.00000026	      0.00000000	      0.00000000	     44.99992434	    -14.99999999	     44.99992434	     75.00017585	     45.00000026	      0.00000000	      0.00000000
      2.33000000	    -12.98031039	     -2.07207046	     -1.74886238	      0.17340621	      0.48722602	     -1.22201145	     96.77811474	    -48.47340846	     12.06729248	    114.13488904	      1.99202961	     33.47535765	     11.97167982	      0.00000000	    104.20392119	    -48.67833672	     19.93894297	    116.99718017	      2.04198601	     29.99269504	     21.81572977	      0.00000000	    -19.82537533	      2.29690784	     -5.17055753	     44.99992434	    -14.99999999	     44.99992434	     75.00017585	     45.00000026	      0.00000000	      0.00000000	     44.99992434	    -14.99999999	     44.99992434	     75.00017585	     45.00000026	      0.00000000	      0.00000000
